<svg xmlns="http://www.w3.org/2000/svg" width="24" height="24" viewBox="0 0 24 24" aria-hidden="true">
  <path fill="#4285F4" d="M23.5 12.27c0-.78-.07-1.53-.2-2.27H12v4.29h6.47a5.53 5.53 0 0 1-2.4 3.63v2.96h3.88c2.27-2.09 3.55-5.17 3.55-8.61Z"/>
  <path fill="#34A853" d="M12 24c3.24 0 5.96-1.07 7.95-2.92l-3.88-2.96c-1.08.72-2.45 1.14-4.07 1.14-3.13 0-5.78-2.11-6.72-4.95H1.27v3.05A12 12 0 0 0 12 24Z"/>
  <path fill="#FBBC05" d="M5.28 14.31a7.2 7.2 0 0 1 0-4.62V6.64H1.27a12 12 0 0 0 0 10.72l4.01-3.05Z"/>
  <path fill="#EA4335" d="M12 4.74c1.76 0 3.34.61 4.58 1.8l3.44-3.44A11.55 11.55 0 0 0 12 0 12 12 0 0 0 1.27 6.64l4.01 3.05C6.22 6.85 8.87 4.74 12 4.74Z"/>
</svg>
